<?xml version="1.0" encoding="utf-8"?>
<svg enable-background="new 0 0 256 256" id="Layer_1" version="1.1" viewBox="0 0 256 256" width="100%" x="0px" xml:space="preserve" xmlns="http://www.w3.org/2000/svg" xmlns:xlink="http://www.w3.org/1999/xlink" y="0px">
<path d=" M57.342876,217.419846   C51.714664,220.716934 46.453831,223.934219 41.032955,226.854385   C39.081055,227.905838 36.484062,229.377472 34.577553,227.231979   C32.767643,225.195206 33.394672,222.488434 34.713554,220.224915   C38.905483,213.030487 42.983166,205.756989 47.500664,198.769836   C49.910137,195.043152 50.139702,192.820221 45.627644,190.734055   C40.173065,188.212128 35.411251,184.561096 31.050915,180.345566   C24.282728,173.802139 23.201509,165.534851 25.108858,157.233337   C29.195038,139.448746 39.355026,126.680580 57.645363,121.516350   C68.707932,118.392876 79.745003,115.160049 91.408302,115.624199   C114.041298,116.524872 129.774261,128.243393 140.393677,147.505737   C143.474030,153.093140 143.426163,159.353348 141.841064,165.495499   C141.236938,167.836502 141.182312,169.633102 143.771851,170.872665   C157.737457,177.557770 171.659058,184.334793 185.608902,191.052979   C186.014206,191.248154 186.564880,191.141479 187.062668,191.176605   C188.502029,189.130859 186.882248,187.660706 186.170563,186.120117   C183.378632,180.076508 180.621490,174.010635 177.597931,168.082336   C175.485199,163.939911 176.582840,162.137939 180.618103,159.554794   C200.640488,146.737610 218.067123,122.879875 209.648865,96.965202   C205.629227,84.591187 196.873993,76.117882 185.934937,69.709793   C171.948502,61.516567 156.468674,57.678822 140.586487,57.714863   C106.227249,57.792824 77.058037,70.378883 54.445293,96.868317   C52.923233,98.651329 51.682613,101.065956 48.431042,100.721565   C47.816273,98.078896 48.745148,95.958740 50.117397,94.107399   C53.688137,89.290009 57.497997,84.689301 61.936386,80.593895   C78.567932,65.247574 98.078697,56.104420 120.392204,52.487301   C146.675720,48.226627 171.377869,51.354351 193.988937,66.454826   C221.931992,85.116203 227.640137,118.669464 207.350082,145.557220   C202.276138,152.281052 196.237366,157.963791 189.571304,162.981766   C186.069870,165.617508 185.674911,168.219315 187.805328,171.940506   C191.941147,179.164444 195.819702,186.537598 199.706116,193.901031   C200.687805,195.761017 202.075089,197.788864 200.611374,199.977173   C199.049026,202.312958 196.711868,201.693130 194.312561,201.598312   C188.541260,201.370270 183.908920,198.216675 178.934723,196.047638   C168.102524,191.324249 157.359421,186.381317 146.722763,181.232986   C143.118210,179.488327 141.177597,180.361832 138.803864,183.311768   C127.183395,197.753006 112.332573,205.723999 93.415665,205.360947   C89.649712,205.288681 86.178627,204.170181 82.714348,203.121399   C79.078560,202.020706 76.319443,202.706573 73.614059,205.257324   C68.753662,209.839935 63.304070,213.680130 57.342876,217.419846  M53.887062,172.778473   C46.510521,166.599731 44.384674,158.250031 48.503155,151.631958   C51.250599,147.217026 56.449268,145.686768 60.597404,148.071960   C64.542152,150.340195 65.439476,155.260986 62.641743,159.915802   C61.790462,161.332153 60.645538,162.574692 59.610439,163.877243   C57.936352,165.983871 58.401703,167.567566 60.822983,168.547836   C64.676239,170.107819 68.568611,170.148224 72.502831,168.743149   C75.638092,167.623444 77.036949,166.122635 75.681374,162.395050   C73.624725,156.739639 76.120911,150.515961 80.989174,147.704117   C83.932846,146.003906 87.006432,145.858994 90.018181,147.550171   C93.080757,149.269867 93.561249,152.154617 93.313881,155.316696   C93.127991,157.692947 92.055832,159.774536 91.168449,161.925308   C90.519905,163.497223 88.752716,165.229095 91.053055,166.725891   C93.546211,168.348175 96.195976,167.790009 98.651970,166.467865   C100.922379,165.245621 100.057785,163.436111 99.331558,161.704468   C99.074471,161.091446 98.860741,160.460327 98.624977,159.838318   C97.073227,155.744522 97.155838,151.823318 100.840408,148.971970   C103.561150,146.866501 106.862221,146.828247 109.701637,148.833405   C113.459183,151.486923 114.410484,155.510773 112.705826,159.498795   C110.768829,164.030365 112.290184,165.958755 116.564552,166.929977   C118.504433,167.370773 120.360634,168.287186 122.313385,168.546280   C133.518524,170.033005 138.177002,164.220779 134.520691,153.422791   C134.148270,152.322968 133.730667,151.212921 133.153122,150.211990   C126.686981,139.005524 117.635948,130.741592 105.379509,126.291138   C89.070885,120.369301 73.271896,123.625038 57.622768,129.157959   C45.037148,133.607758 37.382221,142.739288 33.135330,155.031998   C29.247589,166.285156 31.689880,173.152740 41.632889,179.843689   C45.512703,182.454544 49.613800,184.638962 53.763374,186.775116   C60.326633,190.153839 60.690235,191.932022 56.547657,197.866852   C53.402737,202.372375 50.330574,206.929077 47.260284,211.486069   C46.555157,212.532639 45.394093,213.508362 46.306805,215.148849   C48.805531,215.877075 50.198177,213.870148 51.831703,212.673676   C58.145374,208.049225 64.482361,203.447327 70.624252,198.600800   C74.869789,195.250656 79.380119,194.910126 84.254723,196.456665   C87.440018,197.467224 90.638077,198.432358 94.005585,198.314224   C109.366959,197.775314 121.892746,191.327988 131.892395,179.823715   C133.104218,178.429565 135.159195,177.381439 134.801117,174.557510   C125.554527,176.179886 116.605530,175.744781 108.217995,171.157166   C106.387680,170.156067 104.668129,171.213745 103.035233,172.076019   C98.211838,174.623062 93.255699,175.112000 88.100090,173.130920   C84.645798,171.803574 81.348289,172.185226 77.960121,173.734848   C70.111176,177.324646 62.233715,177.734665 53.887062,172.778473  M54.373234,160.927261   C57.118118,159.061905 58.443146,156.898193 56.318344,152.942551   C53.919109,155.819199 52.718689,157.943222 54.373234,160.927261  M83.476051,159.861588   C85.380905,158.694290 85.885796,157.095871 85.026657,154.537979   C82.627525,155.870956 81.571136,157.236679 83.476051,159.861588  z" fill="#FFFFFF" opacity="1.000000" stroke="none"/>
</svg>