<svg xmlns="http://www.w3.org/2000/svg" xmlns:xlink="http://www.w3.org/1999/xlink" version="1.1" id="Layer_1" x="0px" y="0px" width="100%" viewBox="0 0 736 736">

<path fill="#010101" opacity="1.000000" stroke="none" d=" M152.042206,564.956665   C129.122711,539.866943 118.174095,510.699371 118.332054,476.989655   C118.617867,415.994385 118.456039,354.996674 118.303970,294.000397   C118.292290,289.312531 119.351875,287.805115 124.321167,287.809326   C285.145538,287.945740 445.970062,287.915253 606.794556,287.939972   C616.149719,287.941437 615.035339,286.762756 615.039978,296.167114   C615.070007,356.830383 615.479248,417.497284 614.947205,478.155823   C614.473450,532.180786 588.795959,570.719177 540.215454,593.844971   C525.821899,600.696838 510.272461,603.923096 494.244507,603.932983   C409.249451,603.985413 324.252502,604.282898 239.260101,603.806763   C205.018997,603.614929 176.072296,589.825195 152.042206,564.956665  M315.362244,513.101257   C318.497070,511.609833 321.914001,510.523346 324.724030,508.565674   C361.102142,483.222137 397.423798,457.797180 433.693970,432.299316   C450.130646,420.744324 450.013519,403.224121 433.594147,391.766205   C420.927643,382.927155 408.265472,374.081970 395.604889,365.234467   C371.503937,348.392120 347.431946,331.508148 323.290375,314.724213   C315.806366,309.521088 307.677368,308.984650 299.690277,313.209839   C292.104095,317.223022 287.829956,323.749451 287.826080,332.579315   C287.802917,385.572327 287.700867,438.565765 287.891418,491.558075   C287.943359,506.007538 300.188873,515.625427 315.362244,513.101257  z"/>
<path fill="#010101" opacity="1.000000" stroke="none" d=" M449.537140,171.574661   C442.488403,150.287918 435.558838,129.377396 428.474640,108.000282   C430.145752,107.714050 431.390106,107.314873 432.634277,107.315514   C453.783813,107.326431 474.941376,107.031006 496.081299,107.507011   C547.827698,108.672180 593.285339,144.910461 608.623657,191.621292   C613.636597,206.887589 615.378296,222.407410 615.147095,238.321701   C615.097534,241.729599 613.937683,242.929535 610.428101,242.922256   C566.129028,242.830353 521.829773,242.852188 477.530579,242.917480   C474.586060,242.921829 473.064972,241.927765 472.114075,239.031906   C465.328369,218.366409 458.383240,197.753250 451.481354,177.125946   C450.901031,175.391556 450.265930,173.675476 449.537140,171.574661  z"/>
<path fill="#010101" opacity="1.000000" stroke="none" d=" M178.093933,125.117493   C197.707245,113.565735 218.469406,107.421448 240.946365,107.242325   C243.798965,107.219589 245.347275,107.880989 246.349030,110.956749   C255.398041,138.740784 264.635468,166.463684 273.878601,194.184189   C279.122040,209.909531 284.479309,225.596939 290.043243,242.064789   C287.778259,242.389114 286.101593,242.837906 284.424561,242.839066   C230.807373,242.876343 177.190002,242.817627 123.573204,242.967148   C119.109734,242.979584 118.378380,241.211090 118.311951,237.366425   C117.476624,189.018600 137.405350,151.742645 178.093933,125.117493  z"/>
<path fill="#010101" opacity="1.000000" stroke="none" d=" M404.999573,242.874969   C384.171509,242.874374 363.842407,242.773911 343.515808,242.956116   C339.384155,242.993134 337.377472,241.807373 336.043915,237.677719   C328.028442,212.855850 319.720490,188.128159 311.462006,163.385086   C305.367737,145.126144 299.199585,126.891853 292.817444,107.912422   C294.865723,107.677185 296.563416,107.314842 298.261627,107.312256   C324.088379,107.272919 349.915558,107.342216 375.741669,107.205826   C379.294495,107.187065 380.920288,108.154358 382.098602,111.741951   C393.867828,147.574722 405.877716,183.328415 417.818665,219.104797   C419.976044,225.568527 422.010681,232.076569 424.329742,238.481674   C425.608337,242.013016 424.368500,242.997360 420.994049,242.918411   C415.831635,242.797623 410.664520,242.879196 404.999573,242.874969  z"/>

</svg>